<svg width="346" height="362" viewBox="0 0 346 362" fill="none" xmlns="http://www.w3.org/2000/svg">
<path d="M309 109.06C282.35 78.5 236.26 64.78 197.81 78.93C189.66 81.93 156.1 81.93 147.96 78.93C109.52 64.78 63.43 78.5 36.77 109.06C5.12 145.36 -4.74 193.89 2.02 239.65C10.62 297.82 43.1 337.67 103.26 355.57C136.85 365.57 149.79 360.2 172.88 360.2C195.97 360.2 208.91 365.56 242.5 355.57C302.66 337.67 335.14 297.82 343.74 239.65C350.52 193.89 340.65 145.36 309 109.06Z" fill="#E12827"/>
<path d="M87.26 191.26C106.049 191.26 121.28 176.029 121.28 157.24C121.28 138.451 106.049 123.22 87.26 123.22C68.4713 123.22 53.24 138.451 53.24 157.24C53.24 176.029 68.4713 191.26 87.26 191.26Z" fill="#E65D42"/>
<path d="M309 109.06C282.35 78.5 236.26 64.78 197.81 78.93C189.66 81.93 156.1 81.93 147.96 78.93C135.31 74.27 121.83 72.69 108.49 73.67C130.43 78.44 131.19 106.22 199.95 101.13C263.85 96.39 311.02 191.25 274.67 269.37C252.09 317.89 175.02 350.72 73.84 343.94C82.8 348.49 92.57 352.39 103.26 355.57C136.85 365.57 149.79 360.2 172.88 360.2C195.97 360.2 208.91 365.56 242.5 355.57C302.66 337.67 335.14 297.82 343.74 239.65C350.52 193.89 340.65 145.36 309 109.06Z" fill="#C32120"/>
<path d="M171.64 64.37C165.3 48.37 149.58 38.71 132.45 37C140.69 44.94 146.7 51.71 149.47 65.56C140.49 60.51 116.22 56.85 102.9 66.35C120.62 68.34 130.45 72.3 140.76 84.16C140.76 84.16 133.54 90.84 132.05 98.21C130.99 103.47 132.59 115.51 132.59 115.51C143.53 99.99 169.65 107.91 170.84 91.68C170.84 91.68 197.76 96.83 208.05 115.43C210.03 90.89 198.15 86.53 198.15 86.53C209.5 78.35 230.74 84.16 242.86 87.92C234.97 76.25 217.63 66.34 201.8 68.47C208.16 56.93 219.46 50.45 232.58 49.16C212.76 42.35 184.6 42.64 171.64 64.37Z" fill="#00883E"/>
<path d="M184.67 0.0200007C163.21 16.97 165.53 58.18 168.06 77.89C169.61 78.66 171.53 78.84 173.67 77.47C173.74 65.53 174.63 46.94 179.07 34.48C185.46 16.54 195.53 11.14 195.53 11.14C195.54 -0.909999 184.67 0.0200007 184.67 0.0200007Z" fill="#007B38"/>
</svg>
